HIERARCHY
ROOT ui
{
	 OFFSET 0 0 0
	 CHANNELS 3 XPosition YPosition Z Position
	 EndSite
	 {
	 OFFSET 0 -1 0
	 }
}
ROOT li
{
	 OFFSET 0 0 0
	 CHANNELS 3 XPosition YPosition Z Position
	 EndSite
	 {
	 OFFSET 0 -1 0
	 }
}
ROOT ul
{
	 OFFSET 0 0 0
	 CHANNELS 3 XPosition YPosition Z Position
	 EndSite
	 {
	 OFFSET 0 -1 0
	 }
}
ROOT ll
{
	 OFFSET 0 0 0
	 CHANNELS 3 XPosition YPosition Z Position
	 EndSite
	 {
	 OFFSET 0 -1 0
	 }
}
ROOT tt
{
	 OFFSET 0 0 0
	 CHANNELS 3 XPosition YPosition Z Position
	 EndSite
	 {
	 OFFSET 0 -1 0
	 }
}
ROOT tb
{
	 OFFSET 0 0 0
	 CHANNELS 3 XPosition YPosition Z Position
	 EndSite
	 {
	 OFFSET 0 -1 0
	 }
}
ROOT td
{
	 OFFSET 0 0 0
	 CHANNELS 3 XPosition YPosition Z Position
	 EndSite
	 {
	 OFFSET 0 -1 0
	 }
}
ROOT v
{
	 OFFSET 0 0 0
	 CHANNELS 3 XPosition YPosition Z Position
	 EndSite
	 {
	 OFFSET 0 -1 0
	 }
}
ROOT bn
{
	 OFFSET 0 0 0
	 CHANNELS 3 XPosition YPosition Z Position
	 EndSite
	 {
	 OFFSET 0 -1 0
	 }
}
MOTION
Frames: 24
Frame Time: 0.002
-0.002792815923690796	0.004783450126647949	0		0.6737274169921875	-2.588560791015625	0		-1.0261856689453126	0.2550256042480469	0		-0.09764359283447266	-3.213162109375	0		1.820613525390625	-1.25946435546875	0		2.847936767578125	-0.03460190200805664	0		4.49327001953125	0.85003515625	0		6.0204384765625	0.7278319702148438	0		-0.3308658447265625	5.85430712890625	0		
0.009037766456604004	-0.013772863388061524	0		0.6878937377929687	-2.58514697265625	0		-0.9581539916992188	0.24963186645507812	0		-0.09753303527832032	-3.213542236328125	0		1.6958203125	-1.251980712890625	0		2.875944091796875	-0.04138751220703125	0		4.479279296875	0.8438794555664062	0		6.02707958984375	0.63527392578125	0		-0.3307865905761719	5.85392626953125	0		
-0.0056443710327148434	0.0010569560527801513	0		0.6370764770507813	-2.579778564453125	0		-1.0259947509765626	0.2542468719482422	0		-0.09639828491210937	-3.21194921875	0		1.81777099609375	-1.2631778564453124	0		2.867755859375	-0.0606473503112793	0		4.4652666015625	0.83671337890625	0		6.0221005859375	0.6261665649414062	0		-0.4640123291015625	5.83451220703125	0		
0.029294557571411133	-0.00986384105682373	0		0.6760706176757812	-2.58775634765625	0		-1.0218455200195313	0.25778067016601564	0		-0.123156494140625	-3.202951416015625	0		1.696014892578125	-1.2527606201171875	0		2.873054931640625	-0.04711282348632812	0		4.45825146484375	0.8294353637695312	0		6.01783251953125	0.6170214233398438	0		-0.316501708984375	5.8629208984375	0		
6.421390175819397E-4	0.007154879093170166	0		0.6423883666992187	-2.573659423828125	0		-1.0217550048828126	0.2573648681640625	0		-0.08600655364990234	-3.200912109375	0		1.691277587890625	-1.2420885009765625	0		2.877730712890625	-0.07557842254638672	0		4.45425	0.8231096801757812	0		6.01789794921875	0.616369384765625	0		-0.3164420166015625	5.86250927734375	0		
0.019613235473632813	-0.0015418469905853272	0		0.6913751220703125	-2.582796875	0		-0.9856688842773438	0.25640740966796877	0		-0.1385141143798828	-3.17554443359375	0		1.69621484375	-1.2535645751953124	0		2.900835693359375	-0.0753143310546875	0		4.4402333984375	0.8159354248046875	0		6.03222607421875	0.6152141723632812	0		-0.33054006958007814	5.85230029296875	0		
-0.031277212142944336	-2.0339100062847137E-4	0		0.6405838012695313	-2.576452392578125	0		-0.9896411743164063	0.25203955078125	0		-0.10641268157958984	-3.1774384765625	0		1.6963160400390624	-1.25396630859375	0		2.870765625	-0.08625820159912109	0		4.438033203125	0.7965919799804687	0		6.0368212890625	0.6559541625976563	0		-0.33149258422851563	5.8528935546875	0		
-0.005197145938873291	-0.001006911039352417	0		0.6916033935546875	-2.58361767578125	0		-1.025557373046875	0.25214329528808593	0		-0.16513656616210937	-3.166984130859375	0		1.6334952392578126	-1.248430419921875	0		2.86777587890625	-0.09159619903564453	0		4.42100439453125	0.789480712890625	0		6.04422265625	0.6896990356445313	0		-0.3304955139160156	5.85145703125	0		
-0.027059587478637695	0.002903604030609131	0		0.6448699340820313	-2.573327392578125	0		-1.0105755615234375	0.2454923095703125	0		-0.15788233947753907	-3.158505859375	0		1.7133138427734376	-1.2680040283203124	0		2.892509765625	-0.11533704376220703	0		4.4147734375	0.7692210083007812	0		6.05140673828125	0.6888783569335938	0		-0.31440240478515624	5.8577998046875	0		
0.044870574951171874	-0.007569458961486817	0		0.6989627075195313	-2.575524169921875	0		-1.0054498291015626	0.2489925842285156	0		-0.15165640258789062	-3.1520068359375	0		1.641827880859375	-1.23932275390625	0		2.881791015625	-0.10153711700439454	0		4.406640625	0.7560045166015625	0		6.06105419921875	0.7416365966796875	0		-0.3153977355957031	5.859400390625	0		
-0.026918737411499024	0.002094280004501343	0		0.6591560668945312	-2.5703212890625	0		-0.973447021484375	0.24410292053222657	0		-0.13242971801757814	-3.145690673828125	0		1.698736083984375	-1.2525341796875	0		2.870524169921875	-0.124720947265625	0		4.4085048828125	0.7426544799804687	0		6.0579111328125	0.6858805541992188	0		-0.3315477600097656	5.851232421875	0		
0.02007283592224121	-0.003986114978790283	0		0.684239990234375	-2.573065185546875	0		-1.0144354248046874	0.2403040008544922	0		-0.16900425720214843	-3.1255361328125	0		1.650671630859375	-1.263181640625	0		2.8914765625	-0.13336595153808595	0		4.39226904296875	0.722583984375	0		6.05748828125	0.72521044921875	0		-0.3315811767578125	5.85083984375	0		
-0.004837238788604736	-0.0029876790046691895	0		0.643300537109375	-2.5768193359375	0		-0.9773710327148437	0.23937164306640624	0		-0.1421187744140625	-3.142305419921875	0		1.710640625	-1.272407958984375	0		2.898270263671875	-0.15278935241699218	0		4.3880498046875	0.7033475952148438	0		6.05180126953125	0.7197601928710937	0		-0.4649008178710938	5.83142626953125	0		
0.023278444290161134	-7.491210103034974E-4	0		0.64544091796875	-2.575188720703125	0		-1.0102374267578125	0.24349441528320312	0		-0.21943167114257814	-3.103511962890625	0		1.6587388916015624	-1.271966796875	0		2.88448095703125	-0.14389179992675782	0		4.377923828125	0.6902097778320313	0		6.05967578125	0.7155673217773437	0		-0.31746865844726563	5.8599033203125	0		
0.0054582591056823735	0.006192982196807861	0		0.66470361328125	-2.56478466796875	0		-1.0101652221679687	0.24316117858886718	0		-0.14930111694335937	-3.10286669921875	0		1.71386572265625	-1.2700804443359375	0		2.91102490234375	-0.180575927734375	0		4.3916953125	0.6697314453125	0		6.04984814453125	0.7327799682617188	0		-0.3174576721191406	5.85957763671875	0		
-0.001572983980178833	-9.938690066337585E-4	0		0.6357655029296875	-2.56664404296875	0		-1.0141542358398437	0.238923095703125	0		-0.2188782653808594	-3.080131103515625	0		1.7109014892578125	-1.2733150634765624	0		2.921198974609375	-0.17399484252929687	0		4.36357373046875	0.6568834228515625	0		6.04989794921875	0.7323480834960937	0		-0.33157147216796873	5.84949169921875	0		
0.0015465339422225952	0.0027072300910949707	0		0.676884521484375	-2.563500732421875	0		-0.9821558837890625	0.23419718933105468	0		-0.1616719970703125	-3.07122509765625	0		1.70892041015625	-1.276537353515625	0		2.92590673828125	-0.1983159942626953	0		4.36545703125	0.644607177734375	0		6.05134716796875	0.7284125366210937	0		-0.4657983093261719	5.83120947265625	0		
-0.00451136589050293	-0.004417665004730224	0		0.6358623046875	-2.567114501953125	0		-1.022150146484375	0.23157666015625	0		-0.21843011474609375	-3.056601318359375	0		1.7038563232421875	-1.28368505859375	0		2.915848388671875	-0.20539598083496094	0		4.37579736328125	0.5962158813476562	0		6.04791796875	0.7454174194335937	0		-0.46572613525390627	5.830998046875	0		
0.0016122310161590576	0.0023240220546722414	0		0.6648811645507813	-2.565718017578125	0		-1.0140241088867188	0.23830029296875	0		-0.2072528839111328	-3.043931396484375	0		1.7158323974609375	-1.2860498046875	0		2.9684052734375	-0.2373747100830078	0		4.3844267578125	0.5688680419921875	0		6.06061474609375	0.7186007080078125	0		-0.31622891235351563	5.85763720703125	0		
-0.020348987579345702	0.005527433872222901	0		0.6429346313476563	-2.5585263671875	0		-1.0099693603515625	0.24213790893554688	0		-0.2079888458251953	-3.022035888671875	0		1.837656494140625	-1.296996826171875	0		2.957615478515625	-0.22238583374023438	0		4.3813408203125	0.5627169189453125	0		6.06061181640625	0.7182095336914063	0		-0.31712100219726563	5.85853662109375	0		
0.001562885046005249	0.002135679006576538	0		0.6798160400390625	-2.56015478515625	0		-0.9861851806640625	0.2297401580810547	0		-0.2169063720703125	-3.008967529296875	0		1.823557373046875	-1.298899658203125	0		2.961214111328125	-0.24657742309570313	0		4.39802978515625	0.5433004760742187	0		6.04632177734375	0.7183613891601562	0		-0.33216036987304687	5.84969873046875	0		
-0.023512062072753907	0.0024932529926300047	0		0.6375973510742188	-2.564564208984375	0		-1.0262965087890625	0.22734750366210937	0		-0.20995071411132812	-3.001078125	0		1.8173404541015625	-1.305873291015625	0		2.967010498046875	-0.2547601776123047	0		4.39856787109375	0.516153564453125	0		6.04626953125	0.7180448608398438	0		-0.4653705749511719	5.8306650390625	0		
-0.004731517791748047	-0.004740787982940674	0		0.6873052978515625	-2.571279541015625	0		-1.0264027099609374	0.22742710876464844	0		-0.21388056945800782	-2.981968017578125	0		1.8220205078125	-1.3169595947265624	0		3.005572998046875	-0.2763869323730469	0		4.403173828125	0.4959837646484375	0		6.04046630859375	0.7145241088867188	0		-0.3319968566894531	5.8497529296875	0		
-0.023771949768066406	0.002647258996963501	0		0.6402183227539062	-2.560501220703125	0		-1.0106316528320312	0.22133407592773438	0		-0.21786851501464843	-2.96379638671875	0		1.8218258056640626	-1.316920166015625	0		3.008490478515625	-0.2714360656738281	0		4.4126435546875	0.4687828674316406	0		6.04036669921875	0.7143204345703125	0		-0.331928466796875	5.84987109375	0		
